<svg width="30" height="40" xmlns="http://www.w3.org/2000/svg" xmlns:svg="http://www.w3.org/2000/svg">
 <!-- Created with SVG-edit - http://svg-edit.googlecode.com/ -->
 <g>
  <title>Layer 1</title>
  <g stroke="null" id="svg_1">
   <path stroke="#000000" d="m15.090166,36.76049c-0.851863,-4.058643 -2.35358,-7.436296 -4.172613,-10.56654c-1.349257,-2.321939 -2.91229,-4.465155 -4.358523,-6.716908c-0.482773,-0.751585 -0.899407,-1.545824 -1.363317,-2.325777c-0.927578,-1.5599 -1.679659,-3.368441 -1.631856,-5.714407c0.046693,-2.292135 0.729659,-4.130812 1.714499,-5.634153c1.619781,-2.472609 4.332971,-4.499891 7.973416,-5.032653c2.976583,-0.43559 5.767262,0.300337 7.746095,1.423584c1.617165,0.917889 2.869579,2.143987 3.821447,3.588998c0.993582,1.508199 1.677794,3.289989 1.735159,5.614108c0.029434,1.190713 -0.171394,2.293402 -0.454401,3.208048c-0.286287,0.925817 -0.746832,1.699769 -1.156624,2.526431c-0.800003,1.613651 -1.802835,3.092081 -2.80938,4.571346c-2.997904,4.4065 -5.811682,8.900213 -7.043903,15.057922z" stroke-miterlimit="10" fill-rule="evenodd" fill="#ff0000" clip-rule="evenodd" id="svg_2"/>
  </g>
  <circle stroke="null" id="svg_4" r="4.198515" cy="12.277778" cx="15.055555" stroke-linecap="null" stroke-linejoin="null" stroke-dasharray="null" stroke-width="10" fill="#000000"/>
  <g stroke="null" id="svg_3">
   <path stroke="null" stroke-width="0" fill="#aad4ff" d="m20.766973,6.368959c-0.038691,-0.148787 -0.191921,-0.238067 -0.340712,-0.199377l-0.559456,0.147301c-0.148802,0.038686 -0.238062,0.191938 -0.199364,0.340729l0.230618,0.87934c0,0 -1.577158,-0.496954 -1.883675,-0.566888c0.147295,-0.218715 0.230627,-0.483562 0.218721,-0.769232c-0.025303,-0.657652 -0.554987,-1.194777 -1.212631,-1.228999c-0.739477,-0.038684 -1.352485,0.549033 -1.352485,1.281074c0,0.147297 0.025288,0.290137 0.071423,0.42107l-0.398766,-0.025293c-0.276741,-0.017854 -0.553476,0.02678 -0.809387,0.129441l-1.627772,0.653186c-0.144325,0.058029 -0.214236,0.221699 -0.156228,0.366024l0.212764,0.531174c0.058034,0.144325 0.221705,0.214256 0.36604,0.156226l1.175433,-0.471661c0.368991,-0.148789 0.770733,-0.197891 1.166493,-0.144322l1.123343,0.151762l0.532686,3.378995l-2.501159,0.36453c-0.461241,0.066957 -0.854046,0.377924 -1.025146,0.812374l-0.739489,1.880691c-0.864466,0.135393 -1.636672,0.412149 -2.254141,0.803458c-0.050593,0.031244 -0.258902,-0.059514 -0.315438,-0.07142c-0.124975,-0.026779 -0.249958,-0.049097 -0.376432,-0.063975c-0.252947,-0.031267 -0.508858,-0.038702 -0.763292,-0.023826c-0.508851,0.031262 -1.013251,0.153257 -1.478957,0.36156c-0.23062,0.104149 -0.443395,0.229137 -0.650205,0.374947c-0.028275,0.019339 -0.055062,0.040173 -0.081837,0.061022c-0.014885,0.011898 -0.022319,0.031244 -0.019338,0.049101c0.001486,0.013376 0.010406,0.02976 0.025292,0.02529c0.044637,-0.008938 0.099687,-0.019354 0.163663,-0.032734c1.350998,-0.214251 2.618684,0.185985 3.789654,0.790078c0.845131,0.435946 1.633702,0.968624 2.468407,1.422432c1.220061,0.663593 2.553221,1.163513 3.980095,0.767752c0.084812,-0.023806 0.160692,-0.044641 0.22616,-0.065466c0.065462,-0.023808 0.120522,-0.046124 0.165157,-0.062481l0.002968,-0.001501c0.029758,-0.011906 0.034222,-0.072895 0.005953,-0.075886l-0.00297,0c-0.002983,0 -0.007433,-0.001501 -0.010418,-0.001501c-0.04166,-0.005934 -0.090757,-0.013371 -0.147285,-0.020817c-0.386848,-0.047607 -0.763302,-0.147297 -1.129305,-0.281208c-0.290136,-0.107124 -0.574326,-0.236557 -0.852557,-0.380899c-0.03422,-0.017857 -0.068457,-0.035709 -0.102663,-0.053579c0.431478,0.061022 0.855535,0.090776 1.269168,0.090776c1.370354,0 2.603802,-0.327324 3.506954,-0.898684c0.044636,-0.028254 0.055048,-0.087776 0.023798,-0.129446c-0.48505,-0.647228 -1.197748,-1.230475 -2.071127,-1.687253l-0.017853,-0.068459c-0.026779,-0.108612 -0.019342,-0.218701 0.019342,-0.319895c0.019344,-0.049102 0.044645,-0.095209 0.077372,-0.136869l0.120527,-0.154739l0.374947,-0.479101c0.659128,-0.840656 0.949263,-1.908956 0.81535,-2.960893c-0.00593,0.130931 -0.023806,0.267817 -0.057999,0.407681c-0.162195,0.660604 -0.653187,1.160543 -1.22455,1.495323c-0.363039,0.21277 -0.763296,0.371972 -1.169481,0.483561c-0.066956,0.153256 -0.444883,1.120378 -0.446369,1.126317c-0.312449,-0.092236 -0.635332,-0.171105 -0.96861,-0.232112c-0.416616,-0.075877 -0.828758,-0.123493 -1.231996,-0.141347l0.441911,-1.124846c0.834719,-0.098209 1.684278,-0.159206 2.511542,-0.309478c0.760332,-0.138386 1.590555,-0.614512 1.88369,-1.359926c0.309481,-0.785605 -0.005959,-1.688756 -0.169621,-2.48031c-0.035688,-0.175567 -0.072887,-0.35263 -0.10862,-0.528201l1.045992,0.316918c0.522263,0.15772 1.01474,-0.316918 0.876358,-0.843634l-0.43449,-1.673871l0,-0.000001z" id="svg_5"/>
  </g>
 </g>
</svg>