<svg width="30" height="40" xmlns="http://www.w3.org/2000/svg" xmlns:svg="http://www.w3.org/2000/svg">
 <!-- Created with SVG-edit - http://svg-edit.googlecode.com/ -->
 <g>
  <title>Layer 1</title>
  <g stroke="null" id="svg_1">
   <path stroke="#000000" stroke-width="2" id="svg_2" clip-rule="evenodd" fill="#ff0000" fill-rule="evenodd" stroke-miterlimit="10" d="m15.28738,34.70062c-0.79277,-3.77713 -2.19033,-6.92051 -3.88319,-9.83364c-1.25568,-2.16088 -2.71029,-4.15545 -4.05621,-6.25101c-0.44929,-0.69946 -0.83703,-1.43861 -1.26876,-2.16446c-0.86324,-1.4517 -1.56316,-3.1348 -1.51867,-5.31805c0.04346,-2.13315 0.67905,-3.8443 1.59558,-5.24336c1.50743,-2.30111 4.03243,-4.18777 7.42038,-4.68358c2.77012,-0.40538 5.36724,0.2795 7.20882,1.32484c1.505,0.85422 2.67054,1.99528 3.55639,3.34007c0.92467,1.40359 1.56142,3.06179 1.61481,5.2247c0.02739,1.10813 -0.1595,2.13434 -0.42288,2.98554c-0.26643,0.8616 -0.69503,1.58187 -1.07641,2.3512c-0.74451,1.50173 -1.67778,2.87761 -2.61452,4.25427c-2.78996,4.10086 -5.40858,8.28289 -6.55533,14.01349z"/>
  </g>
  <g id="svg_3" stroke="null">
   <path id="svg_5" d="m19.55447,6.76637c-0.03053,-0.1174 -0.15144,-0.18785 -0.26886,-0.15732l-0.44146,0.11623c-0.11742,0.03053 -0.18785,0.15146 -0.15731,0.26887l0.18197,0.69388c0,0 -1.24452,-0.39214 -1.48639,-0.44733c0.11623,-0.17259 0.18199,-0.38158 0.17259,-0.607c-0.01996,-0.51894 -0.43793,-0.94279 -0.95688,-0.96979c-0.58351,-0.03052 -1.06723,0.43324 -1.06723,1.01089c0,0.11623 0.01995,0.22894 0.05636,0.33226l-0.31467,-0.01996c-0.21837,-0.01409 -0.43674,0.02113 -0.63868,0.10214l-1.28446,0.51543c-0.11389,0.04579 -0.16905,0.17494 -0.12328,0.28882l0.16789,0.41915c0.0458,0.11389 0.17495,0.16907 0.28884,0.12328l0.92753,-0.37219c0.29116,-0.11741 0.60817,-0.15615 0.92047,-0.11388l0.88642,0.11975l0.42034,2.66634l-1.97365,0.28765c-0.36396,0.05283 -0.67392,0.29822 -0.80893,0.64104l-0.58353,1.48404c-0.68214,0.10683 -1.29148,0.32522 -1.77872,0.634c-0.03993,0.02465 -0.2043,-0.04696 -0.24891,-0.05636c-0.09862,-0.02113 -0.19724,-0.03874 -0.29704,-0.05048c-0.1996,-0.02467 -0.40154,-0.03054 -0.60231,-0.0188c-0.40153,0.02467 -0.79955,0.12093 -1.16703,0.2853c-0.18198,0.08219 -0.34988,0.18081 -0.51308,0.29587c-0.02231,0.01526 -0.04344,0.0317 -0.06457,0.04815c-0.01175,0.00939 -0.01761,0.02466 -0.01526,0.03875c0.00117,0.01055 0.00821,0.02348 0.01996,0.01996c0.03522,-0.00706 0.07866,-0.01528 0.12914,-0.02583c1.06606,-0.16907 2.06639,0.14675 2.99039,0.62344c0.66689,0.344 1.28914,0.76433 1.9478,1.12243c0.96274,0.52363 2.01473,0.91812 3.14067,0.60583c0.06692,-0.01879 0.1268,-0.03523 0.17846,-0.05166c0.05165,-0.01879 0.0951,-0.0364 0.13032,-0.04931l0.00234,-0.00118c0.02348,-0.0094 0.02701,-0.05752 0.0047,-0.05988l-0.00234,0c-0.00236,0 -0.00587,-0.00119 -0.00823,-0.00119c-0.03287,-0.00468 -0.07161,-0.01055 -0.11622,-0.01642c-0.30526,-0.03757 -0.60231,-0.11623 -0.89112,-0.2219c-0.22895,-0.08453 -0.4532,-0.18667 -0.67275,-0.30057c-0.027,-0.01409 -0.05402,-0.02817 -0.08101,-0.04227c0.34047,0.04815 0.67509,0.07163 1.00149,0.07163c1.08134,0 2.05464,-0.25829 2.76731,-0.70915c0.03522,-0.02229 0.04344,-0.06926 0.01878,-0.10214c-0.38275,-0.51073 -0.94513,-0.97096 -1.63431,-1.3314l-0.01409,-0.05402c-0.02113,-0.08571 -0.01526,-0.17258 0.01526,-0.25243c0.01527,-0.03874 0.03523,-0.07513 0.06106,-0.108l0.0951,-0.1221l0.29587,-0.37806c0.52012,-0.66336 0.74906,-1.50634 0.64339,-2.33642c-0.00468,0.10332 -0.01879,0.21134 -0.04577,0.3217c-0.12798,0.52128 -0.51542,0.91578 -0.96628,1.17995c-0.28647,0.16789 -0.60231,0.29352 -0.92283,0.38157c-0.05283,0.12094 -0.35105,0.88409 -0.35223,0.88877c-0.24655,-0.07278 -0.50133,-0.13502 -0.76432,-0.18316c-0.32875,-0.05987 -0.65397,-0.09744 -0.97216,-0.11153l0.34871,-0.88761c0.65867,-0.0775 1.32905,-0.12563 1.98184,-0.24421c0.59997,-0.1092 1.2551,-0.4849 1.4864,-1.0731c0.24421,-0.61992 -0.0047,-1.33259 -0.13384,-1.9572c-0.02816,-0.13854 -0.05752,-0.27826 -0.08571,-0.4168l0.82538,0.25008c0.41211,0.12445 0.80073,-0.25008 0.69153,-0.66571l-0.34285,-1.32083l0,-0.00001z" stroke="null"/>
  </g>
 </g>
</svg>